<svg viewBox="0 0 48 40" xmlns="http://www.w3.org/2000/svg"><g fill-rule="evenodd"><path d="m44 40h-40c-2.2 0-4-1.8-4-4v-32c0-2.2 1.8-4 4-4h40c2.2 0 4 1.8 4 4v32c0 2.2-1.8 4-4 4zm-27-35c0-.6-.4-1-1-1h-11c-.6 0-1 .4-1 1v30c0 .6.4 1 1 1h11c.6 0 1-.4 1-1zm27 0c0-.6-.4-1-1-1h-21c-.6 0-1 .4-1 1v30c0 .6.4 1 1 1h21c.6 0 1-.4 1-1z"/><path d="m13 10.8h-5c-1.1 0-2-.9-2-2s.9-2 2-2h5c1.1 0 2 .9 2 2s-.9 2-2 2z"/><path d="m13 17.6h-5c-1.1 0-2-.9-2-2s.9-2 2-2h5c1.1 0 2 .9 2 2s-.9 2-2 2z"/><path d="m13 24.4h-5c-1.1 0-2-.9-2-2s.9-2 2-2h5c1.1 0 2 .9 2 2s-.9 2-2 2z"/></g></svg>